# xmcd CD database file
#
# Track frame offsets:
#	150
#	17951
#	34110
#	46734
#	65695
#	87073
#	102559
#	123224
#	143491
#	160226
#
# Disc length: 2401 seconds
#
# Revision: 0
# Processed by: cddbd v1.5.1PL2 Copyright (c) Steve Scherf et al.
# Submitted via: CDex 1.51
#
DISCID=7c095f0a
DTITLE=RAYMOND  SOLOMON - LOOK AT US
DYEAR=1900
DGENRE=Country
TTITLE0=LOOK AT US
TTITLE1=VERTICAL EXPRESSION
TTITLE2=NANNY BLUES
TTITLE3=ONE IN A MILLION
TTITLE4=NIKITA
TTITLE5=GOOD LUCK CHARM
TTITLE6=DANCE WITH MY FATHER
TTITLE7=E HINE
TTITLE8=VEYA CON DIOS
TTITLE9=LADY IN RED
EXTD=
EXTT0=
EXTT1=
EXTT2=
EXTT3=
EXTT4=
EXTT5=
EXTT6=
EXTT7=
EXTT8=
EXTT9=
PLAYORDER=
